<?xml version="1.0" encoding="UTF-8"?>
<svg id="Layer_2" data-name="Layer 2" xmlns="http://www.w3.org/2000/svg" viewBox="0 0 59.5 27.66">
  <defs>
    <style>
      .cls-1 {
        fill: #fff;
      }

      .cls-2 {
        fill: #04a64c;
      }
    </style>
  </defs>
  <g id="Layer_1-2" data-name="Layer 1">
    <g>
      <path class="cls-2" d="m59.49,18.56s-.44-10.27-6.54-14.29S43.16-.58,40.83.34s-.19,5.09-.19,5.09c0,0,2.59,6.3,1.33,6.25-.87-.03-1.64-.77-1.64-.77,0,0-4.01-4.77-9.15-5.74s-9.58,1.5-13.46,4.97c-3.87,3.47-6.34,5.58-10.42,4.21-4.07-1.37-2.5-7.01.2-7.41,2.7-.4,4.64,1.34,4.74,3.14.06,1.09.39,1.22.64,1.14.18-.05.3-.2.35-.37,1.13-3.93-2.69-7.16-6.41-6.85-2.47.2-4.73,1.83-5.89,4.03-1.15,2.2-1.23,4.89-.39,7.22,1.92,5.34,7.28,7.46,12.36,7.08h0s.76.21.14.96c-.62.75-2.99,1.74-3.15,2.74s1.37,0,1.37,0c0,0,1.29-.37,1.74.21.46.58,2.7,1.91,3.57,1.24,0,0,1.04-.79-.62-1.74-1.66-.95-1.29-1.45-.41-1.91.6-.32,3.5-2.62,5.05-3.27.04,0,.08-.01.12-.02.57.89,3.02,4.77,2.91,5.36-.12.66-1,1-.33,1.45.66.46,1.41-.29,1.41-.29,0,0,.73-.31,1.99,0,1.27.31,1.97-.17,1.91-.66-.06-.5-.56-1.18-2.12-1.12-1.43.06-1.78-4.43-1.82-5.16,3.42-.18,7.07.05,10.22.38-.96,1.07-3.29,2.7-1.24,3.49,2.2.85,3.61.83,3.61.83,0,0,.62-.06.33.46-.29.52-.64,1.7-.12,1.72.52.02,1.29-.52,1.47-.73s.37-.93,1.85-.71c1.47.23,3.17.87,3.03-.39-.15-1.27-1.64-1.41-3.21-1.45-1.47-.04-3.98-1.67-3.54-2.96,3.66.48,6.25,1.02,6.25,1.02.6.56,2.04,1.7,2.61,2.29.46.47.92.93,1.21,1.53.04.08.08.18.06.27-.05.2-.28.21-.39.36-.06.09-.07.22.01.29.04.03.09.04.14.05.52.11,1.48.35,1.77-.29.19-.41,1.51-.77,2.09-.39s2.32.56,2.32-.23-1.04-1.56-2.65-1.62c-1.16-.04-2.48-1.18-3.14-1.82,2.6.24,5.91.41,8.15.02,4.21-.73,4.02-3.68,4.02-3.68Z"/>
      <circle class="cls-1" cx="50.61" cy="13.16" r="4.19"/>
      <circle cx="50.61" cy="13.16" r=".95"/>
    </g>
  </g>
</svg>